Coordinates
version=1
nRows=19
nColumns=36
inDegrees=yes

Units are S.I. units (second, meters, Newtons, ...)
If the header above contains a line with 'inDegrees', this indicates whether rotational values are in degrees (yes) or radians (no).

endheader
time	pelvis_tilt	pelvis_list	pelvis_rotation	pelvis_tx	pelvis_ty	pelvis_tz	hip_flexion_r	hip_adduction_r	hip_rotation_r	knee_angle_r	knee_angle_r_beta	ankle_angle_r	subtalar_angle_r	mtp_angle_r	hip_flexion_l	hip_adduction_l	hip_rotation_l	knee_angle_l	knee_angle_l_beta	ankle_angle_l	subtalar_angle_l	mtp_angle_l	lumbar_extension	lumbar_bending	lumbar_rotation	arm_flex_r	arm_add_r	arm_rot_r	elbow_flex_r	pro_sup_r	arm_flex_l	arm_add_l	arm_rot_l	elbow_flex_l	pro_sup_l
      4.86666670	    -10.29417909	     -1.88131388	      2.10186767	      0.68022289	      0.73971818	      0.31640723	     49.06970145	     -9.23467046	     -4.35258239	     69.83783629	      1.21890019	     37.12533803	      0.92420928	     -7.49999987	     46.96101962	     -8.06969329	     -5.01974550	     67.99254530	      1.18669378	     39.33275953	     -6.29940440	     -7.49999987	     -8.77595876	     -0.18375380	      3.15276138	     51.14892650	      5.25301656	     71.49093330	    126.43808135	     86.82968632	     45.09437249	      7.94795418	     73.02909406	    126.09360403	     76.08398041
      4.88333330	    -10.33656238	     -1.98802399	      2.37187795	      0.68076780	      0.72829856	      0.31512156	     50.52437483	     -9.39282295	     -4.53704549	     72.60351394	      1.26717037	     38.54046901	      1.39983089	     -7.49999987	     48.75637320	     -8.15732382	     -4.16811107	     71.07476236	      1.24048862	     40.57981695	     -6.49436190	     -7.49999987	     -9.66299947	     -0.42411761	      3.15994277	     51.63528303	      5.26347435	     71.19105371	    126.33940074	     85.78443958	     45.52694995	      7.89322721	     73.12835266	    126.25551227	     75.32268826
      4.90000000	    -10.67606809	     -2.32801462	      2.85415146	      0.68651273	      0.71937101	      0.31723740	     51.53167855	     -9.50080322	     -4.99571192	     74.63101754	      1.30255698	     40.12937714	      1.84833358	     -7.49999987	     50.26331159	     -8.36626979	     -3.18122866	     73.43054006	      1.28160470	     41.65439041	     -5.91286646	     -7.49999987	     -9.88678348	     -0.47488129	      2.90621187	     51.05635916	      5.16632118	     71.10985047	    126.14717003	     86.08468417	     45.50412977	      7.33558859	     73.62249824	    126.16794349	     75.58094933
      4.91666670	    -10.81760498	     -2.41672651	      3.08353736	      0.67680829	      0.71457580	      0.31207252	     52.65700155	     -9.70687090	     -5.07041689	     76.13595146	      1.32882303	     40.24084521	      1.29304091	     -7.49999987	     51.74282493	     -7.90450702	     -2.74130183	     75.34994989	      1.31510472	     41.89078875	     -6.43028554	     -7.49999987	    -10.88500747	     -0.38951040	      2.62147112	     51.18606515	      4.83235591	     71.25485066	    126.06183271	     86.32995618	     45.69510127	      7.20679817	     73.77758784	    126.13213656	     75.77735573
      4.93333330	    -11.23648479	     -2.55430301	      2.89787625	      0.67438674	      0.70326494	      0.31608516	     54.35246254	     -9.75458837	     -5.09090565	     78.00177332	      1.36138777	     40.97289580	      2.11199240	     -7.49999987	     53.42376933	     -7.96227789	     -2.32142858	     77.21243652	      1.34761124	     42.14774000	     -6.72220229	     -7.49999987	    -11.56679358	     -0.51838136	      2.68152550	     51.43502032	      4.73956420	     71.39878475	    125.83761282	     83.58584332	     45.76276807	      6.83529536	     74.00940479	    125.86746522	     74.23071158
      4.95000000	    -11.37931337	     -2.39838190	      2.71137309	      0.67498776	      0.69844044	      0.31574670	     55.56166914	     -9.75032146	     -4.66538427	     79.53299912	      1.38811270	     41.39746183	      1.51028250	     -7.49999987	     54.56393380	     -7.55580441	     -2.06061677	     78.99283534	      1.37868506	     42.32552444	     -7.74267450	     -7.49999987	    -12.95232886	     -0.76445902	      2.74835610	     52.05059256	      4.50742383	     71.35659260	    125.73759334	     84.00894107	     45.81126195	      6.75943954	     74.38675019	    125.95625713	     74.68956760
      4.96666670	    -11.77682960	     -2.17965753	      2.55076422	      0.67573075	      0.68728672	      0.31598914	     57.06139696	     -9.96889612	     -4.06489634	     81.54413192	      1.42321359	     42.11053701	      1.11490666	     -7.49999987	     55.99112611	     -7.18767926	     -1.76305487	     80.79663683	      1.41016734	     42.99595772	     -8.19999883	     -7.49999987	    -13.74855356	     -1.05088679	      2.79561221	     52.04243426	      4.55669928	     70.97117354	    125.41313730	     89.40023424	     45.49735784	      6.37738972	     74.26229608	    126.10537594	     80.28696408
      4.98333330	    -12.28262804	     -2.12058147	      2.55120207	      0.67397123	      0.66933786	      0.31868587	     59.12911235	    -10.25206298	     -3.73231086	     84.39098422	      1.47290053	     43.21559205	      0.84035519	     -7.49999987	     58.24869399	     -6.95546199	     -1.06736320	     83.67051575	      1.46032599	     43.97657453	     -8.73057925	     -7.49999987	    -14.16226307	     -1.33290260	      2.81056795	     52.40051079	      4.43729809	     70.42744348	    125.67199433	     87.08500948	     45.94134917	      6.28997049	     74.22128104	    126.39156342	     78.77181448
      5.00000000	    -12.59732795	     -1.87337816	      2.28944775	      0.67426570	      0.66174462	      0.31958839	     61.18183659	    -10.28387149	     -3.02229601	     87.18585734	      1.52168027	     43.70233419	      0.04784966	     -7.49999987	     60.15550470	     -6.98192490	     -0.83174493	     86.23818565	      1.50514028	     44.21481931	     -9.10594250	     -7.49999987	    -14.65638575	     -1.65542861	      3.03703269	     52.81315959	      4.56374122	     70.12506819	    125.74152107	     86.73625787	     46.20162566	      6.17782818	     74.06714372	    126.86697019	     78.83740150
      5.01666670	    -12.55068585	     -1.75517030	      2.09442704	      0.67448034	      0.65946086	      0.31948595	     62.14936442	    -10.14485832	     -2.54450419	     88.81924005	      1.55018818	     43.99644043	     -0.59021259	     -7.49999987	     61.34470527	     -6.87797933	     -0.32419409	     88.44343977	      1.54362923	     43.86960244	     -9.91041469	     -7.49999987	    -15.67684449	     -1.89547835	      3.41088649	     53.32247764	      4.36169155	     69.92670893	    125.74958137	     86.00544537	     46.20194466	      5.96164971	     74.16439570	    127.18066786	     78.52960237
      5.03333330	    -12.08181364	     -1.48646374	      1.85114114	      0.67474842	      0.65421306	      0.32027509	     62.59702412	    -10.16166606	     -1.98192382	     90.26542500	      1.57542887	     44.29119538	     -0.61744237	     -7.49999987	     61.88936997	     -6.79574587	     -0.12054531	     90.47920810	      1.57916009	     43.49971800	    -10.42758902	     -7.49999987	    -17.08272225	     -2.35807978	      3.50007406	     53.34037536	      4.44249373	     69.44157937	    125.41972994	     89.96004544	     46.31814389	      5.68216161	     73.73532865	    127.02227412	     83.62543249
      5.05000000	    -11.85089480	     -1.27436221	      1.74672859	      0.67150714	      0.64796208	      0.32332017	     63.60329727	     -9.91633443	     -1.36482801	     91.90870563	      1.60410952	     44.14044296	     -1.49179700	     -7.49999987	     62.73178941	     -6.76196749	      0.10614375	     92.18142680	      1.60886941	     43.13384291	    -11.02763025	     -7.49999987	    -18.45222801	     -2.72286742	      3.74940032	     54.11233014	      4.45404010	     69.83321889	    125.34303870	     89.39546729	     46.70927272	      5.70634592	     74.36730456	    127.20200304	     83.43787751
      5.06666670	    -11.91472000	     -1.22946417	      1.72968509	      0.66867004	      0.63148609	      0.32137569	     65.41540798	    -10.22910496	     -0.98703098	     94.49920374	      1.64932225	     44.61839945	     -0.99507392	     -7.49999987	     64.55896583	     -6.83255465	      0.38041187	     94.64975616	      1.65194988	     43.35837230	    -10.98728002	     -7.49999987	    -19.40169200	     -2.68924480	      4.08379445	     54.76253291	      4.58341047	     70.12084307	    125.22235480	     87.69882461	     47.37476093	      5.89516993	     74.29114839	    127.50388337	     82.31839863
      5.08333330	    -12.14295346	     -1.21061070	      1.89246152	      0.66660379	      0.62043655	      0.32409691	     67.38135687	    -10.56319550	     -0.73598000	     96.81558124	      1.68975066	     45.26795642	     -1.13947843	     -7.49999987	     66.20311281	     -6.89641944	      0.89314974	     96.72293291	      1.68813364	     43.78189827	    -10.23876796	     -7.49999987	    -19.96427979	     -2.70897528	      4.15252009	     55.75645079	      4.72706055	     70.03200576	    125.17868337	     87.98420062	     48.18685713	      6.15231936	     74.53105653	    127.70468343	     82.87900430
      5.10000000	    -12.23575364	     -1.22180654	      2.16847417	      0.66708833	      0.61781365	      0.32460392	     68.49733746	    -10.82155066	     -0.86109657	     98.15605239	      1.71314629	     45.45117663	     -1.10450505	     -7.49999987	     67.40613569	     -7.00248484	      1.21663411	     98.27967861	      1.71530398	     43.58741226	     -9.50841095	     -7.49999987	    -20.52773332	     -2.76000931	      4.14324701	     56.40254906	      4.87884612	     69.74681787	    125.01153305	     89.45452677	     48.46906025	      6.36732772	     74.72790853	    127.59419673	     86.14546902
      5.11666670	    -12.33877775	     -0.94133372	      2.22290180	      0.66407405	      0.61402579	      0.32740374	     69.76173901	    -10.85709150	     -0.55430183	     99.31518752	      1.73337702	     45.26978767	     -1.98087245	     -7.49999987	     68.70891309	     -7.11392949	      0.98642515	     99.78748929	      1.74162024	     42.93298109	     -9.76541995	     -7.49999987	    -21.42328890	     -3.08789216	      4.45223651	     57.27014088	      4.94348413	     70.07069382	    124.99696331	     87.89592448	     49.34709415	      6.28782874	     75.03464634	    127.90655306	     85.09091290
      5.13333330	    -12.50643606	     -0.96722675	      2.16397237	      0.66508757	      0.61115333	      0.32825066	     70.59829364	    -10.63785111	     -0.53584971	     99.96598438	      1.74473557	     45.34458014	     -2.44406296	     -7.49999987	     69.83262373	     -7.58246236	      1.15823568	    100.85576205	      1.76026512	     42.09673840	     -9.66170220	     -7.49999987	    -22.13554196	     -3.12489186	      4.63692942	     57.75754628	      5.08567571	     70.43672618	    124.76145207	     86.92471577	     49.53362242	      6.19169745	     75.25067743	    127.87590310	     84.53782686
      5.15000000	    -12.38632287	     -0.88079916	      2.15659473	      0.66704234	      0.60471188	      0.32781152	     71.06255312	    -10.77784163	     -0.42652810	    100.86168812	      1.76036855	     45.25662281	     -2.61630478	     -7.49999987	     70.54366720	     -7.82481531	      1.16388218	    101.99095223	      1.78007792	     41.92295356	     -9.50338012	     -7.49999987	    -23.23422661	     -3.27119818	      4.60059945	     57.72627093	      5.03671186	     70.55288096	    124.61952477	     86.97607499	     49.27115618	      6.10357322	     75.48043953	    127.77585591	     84.59543928
      5.16666670	    -12.90594531	     -0.98214113	      2.27708736	      0.66853774	      0.59403308	      0.32849130	     72.33798655	    -10.89319328	     -0.16162847	    102.43725164	      1.78786732	     45.54239143	     -2.56204889	     -7.49999987	     72.14900261	     -8.15481240	      1.41695829	    103.55071824	      1.80730098	     42.24655280	     -8.43096945	     -7.49999987	    -23.12259343	     -3.23588768	      4.29449585	     58.17751963	      5.28954070	     71.07854346	    124.71024098	     85.80024310	     49.06387921	      5.88668057	     76.13657021	    128.14238019	     83.62303735
